<svg width="364" height="462" viewBox="0 0 364 462" fill="none" xmlns="http://www.w3.org/2000/svg">
<path fill-rule="evenodd" clip-rule="evenodd" d="M251.009 50.9026C256.714 44.2668 260.575 36.1346 259.93 27.0221C258.071 0.766596 221.188 6.54247 214.013 19.794C206.839 33.0455 207.691 66.6591 216.964 69.0275C220.661 69.9721 228.539 67.6584 236.556 62.8697L231.524 98.1491H261.238L251.009 50.9026Z" fill="#915B3C"/>
<path fill-rule="evenodd" clip-rule="evenodd" d="M253.292 56.8131C257.021 40.3718 267.646 29.1643 266.023 21.8158C264.941 16.9167 262.058 13.8702 257.374 12.6761C254.951 2.9635 247.137 -1.16767 233.931 0.282641C214.123 2.45811 202.033 10.6096 207.254 28.5466C212.053 28.5466 217.847 26.8266 225.859 29.7734C228.401 30.7084 230.219 33.608 231.313 38.472H234.934C238.448 32.6997 241.912 30.5786 245.328 32.1085C248.743 33.6385 249.519 37.3548 247.657 43.2575L249.44 56.8131H253.292Z" fill="#191847"/>
<path fill-rule="evenodd" clip-rule="evenodd" d="M344.19 251.508H201.81C190.869 251.508 182 260.296 182 271.138V384.009C182 394.851 190.869 403.639 201.81 403.639H344.19C355.131 403.639 364 394.851 364 384.009V271.138C364 260.296 355.131 251.508 344.19 251.508ZM324.381 285.86C327.116 285.86 329.333 288.057 329.333 290.768V364.379C329.333 367.09 327.116 369.287 324.381 369.287H221.619C218.884 369.287 216.667 367.09 216.667 364.379V290.768C216.667 288.057 218.884 285.86 221.619 285.86H324.381Z" fill="#C5CFD6"/>
<path fill-rule="evenodd" clip-rule="evenodd" d="M59.2315 397.504C83.6416 367.966 100.158 346.068 108.781 331.81C123.545 307.397 135.629 285.673 139.443 277.375C148.536 257.587 118.508 248.321 111.712 257.551C101.426 271.52 79.4581 315.48 45.8092 389.428L59.2315 397.504Z" fill="#B28B67"/>
<path fill-rule="evenodd" clip-rule="evenodd" d="M109.253 388.917L154.681 275.599C164.397 254.942 117.476 241.364 110.335 250.977C94.1233 272.803 55.5919 358.9 50.7619 365.403L109.253 388.917Z" fill="#2F3676"/>
<path fill-rule="evenodd" clip-rule="evenodd" d="M230.217 363.213C221.782 350.695 190.881 308.782 173.696 291.789C168.758 286.906 163.935 282.226 159.368 277.87C145.795 264.924 115.626 290.892 129.249 302.584C163.176 331.702 212.888 370.698 217.027 374.199C222.828 379.104 235.518 371.079 230.217 363.213Z" fill="#915B3C"/>
<path fill-rule="evenodd" clip-rule="evenodd" d="M230.184 359.069C232.861 360.724 234.552 362.158 235.257 363.369C236.115 364.842 237.028 367.203 237.999 370.45C235.649 371.916 214.529 385.094 174.639 409.984C170.688 407.053 170.395 404.323 173.759 401.794C177.122 399.264 179.903 397.141 182.102 395.422L205.993 367.5C206.453 366.963 207.225 366.733 207.717 366.988C207.725 366.992 207.734 366.997 207.742 367.001L211.579 369.159C215.511 368.225 218.504 367.117 220.557 365.836C222.225 364.795 224.244 362.867 226.613 360.054L226.613 360.054C227.522 358.974 229.065 358.502 230.06 358.999C230.103 359.021 230.144 359.044 230.184 359.069Z" fill="#E4E4E4"/>
<path fill-rule="evenodd" clip-rule="evenodd" d="M69.7319 393.089C71.117 396.753 71.8096 399.494 71.8096 401.313C71.8096 403.526 71.4376 406.754 70.6937 410.998C68.1037 410.998 44.8268 410.998 0.86293 410.998C-0.951729 405.054 0.0957947 401.844 4.0055 401.37C7.9152 400.896 11.1631 400.468 13.7491 400.086L46.2058 385.748C46.8303 385.472 47.5623 385.75 47.8407 386.369C47.8455 386.38 47.8501 386.39 47.8545 386.401L49.9408 391.416C53.5602 393.089 56.5013 393.926 58.7642 393.926C60.6027 393.926 63.1417 393.19 66.3812 391.719L66.3812 391.719C67.6243 391.154 69.0941 391.695 69.664 392.927C69.6886 392.98 69.7112 393.034 69.7319 393.089Z" fill="#E4E4E4"/>
<path fill-rule="evenodd" clip-rule="evenodd" d="M171.028 281.259C208.786 275.163 234.077 270.995 246.901 268.755C283.453 262.368 294.112 242.877 287.81 200.35H220.463C211.55 202.9 174.311 218.673 108.745 247.669C96.9488 253.472 99.1457 270.582 101.302 276.219C101.39 276.449 121.277 310.216 160.962 377.522L216.055 342.744L170.925 285.357C169.733 282.978 169.767 281.612 171.028 281.259Z" fill="#5C63AB"/>
<path fill-rule="evenodd" clip-rule="evenodd" d="M166.175 184.288L126.682 213.026C115.971 215.89 107.022 219.453 99.8354 223.716C98.1378 225.249 96.0861 228.353 103.126 227.817C110.167 227.28 117.597 227.03 118.568 229.409C119.539 231.789 115.279 234.634 117.243 237.845C118.552 239.986 124.737 234.618 135.797 221.744L174.906 205.674L166.175 184.288ZM317.809 185.28L291.936 185.381C307.911 236.484 316.536 263.599 317.809 266.726C320.674 273.762 314.611 284.477 312.019 290.235C320.463 293.979 319.563 280.113 330.215 285.024C339.937 289.506 347.333 297.627 358.566 290.759C359.947 289.915 361.46 286.735 357.804 284.251C348.694 278.061 335.567 267.228 333.793 263.662C331.374 258.8 326.046 232.672 317.809 185.28Z" fill="#915B3C"/>
<path fill-rule="evenodd" clip-rule="evenodd" d="M244.283 77.6996L233.577 75.8799C193.855 109.883 177.539 175.207 128.85 209.812L140.569 224.206C225.036 213.843 245.972 134.163 244.283 77.6996Z" fill="#E87613"/>
<path fill-rule="evenodd" clip-rule="evenodd" d="M290.952 211.02C248.025 211.02 216.449 211.02 196.224 211.02C191.895 211.02 192.711 204.826 193.336 201.701C200.558 165.631 228.749 126.748 228.749 75.4031L256.073 71.1572C278.673 107.176 286.489 151.523 290.952 211.02Z" fill="#DDE3E9"/>
<path fill-rule="evenodd" clip-rule="evenodd" d="M290.191 106.562C294.159 105.431 297.302 102.795 299.618 98.6525C309.605 80.7953 305.999 70.9636 295.326 67.7319C284.653 64.5002 275.135 71.157 258.13 71.157C257.205 71.157 256.358 71.2144 255.588 71.3293L247.035 71.813C222.493 154.234 215.724 209.225 226.729 236.784H301.288C305.705 246.991 309.932 255.579 313.969 262.548H334.285C336.197 201.287 321.499 149.292 290.191 106.562Z" fill="#FF9B21"/>
<path fill-rule="evenodd" clip-rule="evenodd" d="M285.052 194.454C282.708 213.895 278.896 228.005 273.619 236.784H301.288C296.135 224.877 290.723 210.767 285.052 194.454Z" fill="black" fill-opacity="0.1"/>
</svg>
