<svg xmlns="http://www.w3.org/2000/svg" width="22" height="16.262" viewBox="0 0 22 16.262">
    <path d="M18.952 1.803a10.578 10.578 0 0 0-5.044-1.8.477.477 0 0 0-.474.281 3.716 3.716 0 0 0-.145.4 11.727 11.727 0 0 1 4.206 1.509.479.479 0 0 1-.505.813 12.23 12.23 0 0 0-11.979 0 .479.479 0 1 1-.505-.813A11.74 11.74 0 0 1 8.712.681a4.185 4.185 0 0 0-.145-.4.473.473 0 0 0-.475-.28 10.579 10.579 0 0 0-5.069 1.824C2.015 2.756 0 8.204 0 12.914a.48.48 0 0 0 .063.237c1.391 2.443 5.185 3.083 6.05 3.111h.015a.478.478 0 0 0 .387-.2l.875-1.2a9.326 9.326 0 0 1-3.634-1.706.478.478 0 0 1 .632-.718A10.567 10.567 0 0 0 11 14.348a10.57 10.57 0 0 0 6.613-1.91.478.478 0 0 1 .632.718 9.31 9.31 0 0 1-3.634 1.706l.875 1.2a.478.478 0 0 0 .387.2h.015c.865-.027 4.659-.667 6.05-3.111a.486.486 0 0 0 .062-.237c0-4.71-2.015-10.158-3.048-11.111zM7.891 11.001a1.806 1.806 0 0 1-1.674-1.913 1.806 1.806 0 0 1 1.674-1.913 1.806 1.806 0 0 1 1.674 1.913 1.806 1.806 0 0 1-1.674 1.913zm6.218 0a1.806 1.806 0 0 1-1.674-1.913 1.806 1.806 0 0 1 1.674-1.913 1.806 1.806 0 0 1 1.674 1.913 1.806 1.806 0 0 1-1.674 1.913z" data-name="icons8-discord (2)"/>
</svg>